<?xml version="1.0" encoding="utf-8"?>
<svg xmlns="http://www.w3.org/2000/svg" xmlns:xlink="http://www.w3.org/1999/xlink" version="1.1" style="width:0;height:0;position:absolute;overflow:hidden;">
  <defs>
<symbol viewBox="0 0 1024 1024" aria-labelledby="aysi-ant-caret-circle-o-right-title" id="si-ant-caret-circle-o-right"><title id="aysi-ant-caret-circle-o-right-title">icon caret-circle-o-right</title><path d="M512 64q91 0 174 35 81 34 143 96t96 143q35 83 35 174t-35 174q-34 81-96 143t-143 96q-83 35-174 35t-174-35q-81-34-143-96T99 686q-35-83-35-174t35-174q34-81 96-143t143-96q83-35 174-35zm0-64Q373 0 255 68.5T68.5 255 0 512t68.5 257T255 955.5t257 68.5 257-68.5T955.5 769t68.5-257-68.5-257T769 68.5 512 0zm215 528L422 813q-11 10-24 4.5T385 798V226q0-14 13-19.5t24 4.5l305 285q6 7 6 16t-6 16z"/></symbol>
<symbol viewBox="0 0 1024 1024" aria-labelledby="basi-ant-caret-circle-right-title" id="si-ant-caret-circle-right"><title id="basi-ant-caret-circle-right-title">icon caret-circle-right</title><path d="M512 0Q373 0 255 68.5T68.5 255 0 512t68.5 257T255 955.5t257 68.5 257-68.5T955.5 769t68.5-257-68.5-257T769 68.5 512 0zm215 528L422 813q-11 10-24 4.5T385 798V226q0-14 13-19.5t24 4.5l305 285q6 7 6 16t-6 16z"/></symbol>
<symbol viewBox="0 0 638 1030" aria-labelledby="besi-ant-caret-right-title" id="si-ant-caret-right"><title id="besi-ant-caret-right-title">icon caret-right</title><path d="M68 13l558 476q12 11 12 26t-12 26L68 1017q-19 16-43.5 7T0 991V39Q0 15 24.5 6T68 13z"/></symbol>
<symbol viewBox="0 0 1024 1024" aria-labelledby="evsi-ant-pause-circle-o-title" id="si-ant-pause-circle-o"><title id="evsi-ant-pause-circle-o-title">icon pause-circle-o</title><path d="M352 768h-1q-13 0-22-9.5t-9-22.5V288q0-13 9-22.5t22-9.5h1q13 0 22.5 9.5T384 288v448q0 13-9.5 22.5T352 768zm321 0h-1q-13 0-22.5-9.5T640 736V288q0-13 9.5-22.5T672 256h1q13 0 22.5 9.5T705 288v448q0 13-9.5 22.5T673 768zM512 64q91 0 174 35 81 34 143 96t96 143q35 83 35 174t-35 174q-34 81-96 143t-143 96q-83 35-174 35t-174-35q-81-34-143-96T99 686q-35-83-35-174t35-174q34-81 96-143t143-96q83-35 174-35zm0-64Q373 0 255 68.5T68.5 255 0 512t68.5 257T255 955.5t257 68.5 257-68.5T955.5 769t68.5-257-68.5-257T769 68.5 512 0z"/></symbol>
<symbol viewBox="0 0 1024 1024" aria-labelledby="eusi-ant-pause-circle-title" id="si-ant-pause-circle"><title id="eusi-ant-pause-circle-title">icon pause-circle</title><path d="M512 0Q373 0 255 68.5T68.5 255 0 512t68.5 257T255 955.5t257 68.5 257-68.5T955.5 769t68.5-257-68.5-257T769 68.5 512 0zM384 736q0 13-9.5 22.5T352 768h-1q-13 0-22-9.5t-9-22.5V288q0-13 9-22.5t22-9.5h1q13 0 22.5 9.5T384 288v448zm320 0q0 13-9 22.5t-22 9.5h-1q-13 0-22.5-9.5T640 736V288q0-13 9.5-22.5T672 256h1q13 0 22.5 9.5T705 288z"/></symbol>
  </defs>
</svg>
